<?xml version="1.0" encoding="UTF-8" standalone="no"?>
<svg xmlns="http://www.w3.org/2000/svg" viewBox="118 -138 1024 1029" text-rendering="geometricPrecision" shape-rendering="geometricPrecision" fill="none">
  <g>
    <g fill="#5b5b5b" transform="translate(12.0789, 0)rotate(-13.6)">
      <g id="bitcoin">
        <path fill="#2196f3" d="M1008.6,635.86C940.217,910.15,662.41,1077.08,388.09,1008.68C113.88,940.297,-53.05,662.47,15.37,388.2C83.722,113.88,361.53,-53.06,635.77,15.32C910.07,83.703,1076.98,361.56,1008.6,635.86z"/>
        <g transform="translate(493.5014, 387.8982)translate(-497.7807, -344.6929)">
          <path fill="#ffffff" transform="translate(137.5586, -105.2139)scale(0.8371, 0.8371)" d="M343.53,598.23C340.7448,605.1402,333.6902,615.507,317.784,611.574C318.3465,612.3904,276.952,601.383,276.952,601.383L249.065,665.684L322.17,683.911C335.768,687.3172,349.096,690.8876,362.217,694.247L338.971,787.591L395.08,801.591L418.103,709.239C433.431,713.3992,448.314,717.239,462.873,720.852L439.928,812.774L496.104,826.774L519.354,733.606C615.147,751.735,687.174,744.422,717.494,657.782C741.924,588.02,716.2752,547.782,665.877,521.542C702.58,513.0772,730.229,488.933,737.604,439.062C747.799,370.933,695.924,334.312,624.994,309.882L648.002,217.593L591.826,203.593L569.424,293.448C554.658,289.7683,539.49,286.2957,524.416,282.854L546.978,192.409L490.833,178.409L467.81,270.663C455.583,267.8818,443.583,265.1278,431.935,262.2333L432.0014,261.9442L354.5284,242.6002L339.5834,302.6002C339.5834,302.6002,381.2634,312.151,380.3844,312.7452C403.1384,318.4249,407.2474,333.4792,406.5604,345.4172M609.2504,619.0472C591.8914,688.8052,474.4304,651.0942,436.3604,641.6372L467.2084,517.9772C505.2864,527.4811,627.3984,546.2972,609.2584,619.0472L609.2504,619.0472zM626.6294,438.0572C610.7854,501.5102,513.0294,469.2722,481.3194,461.3662L509.2844,349.2062C540.9994,357.1124,643.1244,371.8622,626.6344,438.0582L626.6294,438.0572z"/>
          <rect fill="#2196f3" stroke="#003a73" stroke-width="0" transform="translate(470.5169, 539.3309)rotate(13.59999999999999)translate(-224.4728, -54.6726)" width="448.9457" height="109.3452"/>
        </g>
      </g>
    </g>
    <text fill="#ffffff" font-family="Arial" font-size="300px" font-weight="700" xml:space="preserve" transform="translate(310.6141, 673.2386)scale(1.038, 1.038)" data-gn-el-type="text" style="white-space:pre"><tspan>bblu</tspan></text>
  </g>
</svg>